grf
version=1
nRows=9
nColumns=37
inDegrees=no
endheader
time	ground_force_1_vx	ground_force_1_vy	ground_force_1_vz	ground_force_1_px	ground_force_1_py	ground_force_1_pz	ground_moment_1_mx	ground_moment_1_my	ground_moment_1_mz	ground_force_2_vx	ground_force_2_vy	ground_force_2_vz	ground_force_2_px	ground_force_2_py	ground_force_2_pz	ground_moment_2_mx	ground_moment_2_my	ground_moment_2_mz	ground_force_3_vx	ground_force_3_vy	ground_force_3_vz	ground_force_3_px	ground_force_3_py	ground_force_3_pz	ground_moment_3_mx	ground_moment_3_my	ground_moment_3_mz	ground_force_4_vx	ground_force_4_vy	ground_force_4_vz	ground_force_4_px	ground_force_4_py	ground_force_4_pz	ground_moment_4_mx	ground_moment_4_my	ground_moment_4_mz
      1.34000000	      0.00000000	     -0.00000000	      0.00000000	      0.00000000	      0.00000000	      0.00000000	      0.00000000	      0.00000000	      0.00000000	      2.09225726	      5.71653366	   -703.98419189	   -291.04651720	  -1169.18110907	      0.00000000	      0.00000000	      0.00000000	   1231.83539326	      0.00000000	     -0.00000000	      0.00000000	      0.00000000	      0.00000000	      0.00000000	      0.00000000	      0.00000000	      0.00000000	    -35.10864880	     16.09236643	     76.71572876	    599.98984049	   -560.10190496	      0.00000000	     -0.00000000	     -0.00000000	   -158.81013046
      1.35000000	      0.00000000	     -0.00000000	      0.00000000	      0.00000000	      0.00000000	      0.00000000	      0.00000000	      0.00000000	      0.00000000	     -3.02881050	      7.93260574	   -698.65515137	   -288.65613292	  -1170.03217730	      0.00000000	      0.00000000	      0.00000000	   1073.07138192	      0.00000000	     -0.00000000	      0.00000000	      0.00000000	      0.00000000	      0.00000000	      0.00000000	      0.00000000	      0.00000000	    -34.86468746	     16.20666236	     76.92566681	    601.10729623	   -560.58701059	      0.00000000	     -0.00000000	     -0.00000000	   -245.54749128
      1.36000000	      0.00000000	     -0.00000000	      0.00000000	      0.00000000	      0.00000000	      0.00000000	      0.00000000	      0.00000000	      0.00000000	     -7.36352777	     10.87390900	   -693.54986572	   -286.46465245	  -1170.33736409	      0.00000000	      0.00000000	      0.00000000	    662.33555636	      0.00000000	     -0.00000000	      0.00000000	      0.00000000	      0.00000000	      0.00000000	      0.00000000	      0.00000000	      0.00000000	    -34.87679913	     16.10456772	     75.45471191	    604.14714655	   -561.80048075	      0.00000000	     -0.00000000	     -0.00000000	   -157.97087686
      1.37000000	      0.00000000	     -0.00000000	      0.00000000	      0.00000000	      0.00000000	      0.00000000	      0.00000000	      0.00000000	      0.00000000	     -9.74796200	     13.66094685	   -693.19714355	   -285.01881444	  -1170.28378946	      0.00000000	      0.00000000	      0.00000000	    291.03592894	      0.00000000	     -0.00000000	      0.00000000	      0.00000000	      0.00000000	      0.00000000	      0.00000000	      0.00000000	      0.00000000	    -34.73376704	     16.28450697	     76.62428284	    601.40338122	   -561.87339659	      0.00000000	      0.00000000	     -0.00000000	   -276.42628964
      1.38000000	      0.00000000	     -0.00000000	      0.00000000	      0.00000000	      0.00000000	      0.00000000	      0.00000000	      0.00000000	      0.00000000	     -9.13469791	     14.18365574	   -697.93078613	   -284.86712518	  -1170.34344215	      0.00000000	     -0.00000000	      0.00000000	    162.72253364	      0.00000000	     -0.00000000	      0.00000000	      0.00000000	      0.00000000	      0.00000000	      0.00000000	      0.00000000	      0.00000000	    -34.97826244	     16.14036866	     76.15661621	    606.74158856	   -568.05843231	      0.00000000	      0.00000000	      0.00000000	    102.11583306
      1.39000000	      0.00000000	     -0.00000000	      0.00000000	      0.00000000	      0.00000000	      0.00000000	      0.00000000	      0.00000000	      0.00000000	     -4.63310814	     13.57759953	   -701.34521484	   -284.96381466	  -1170.27863794	      0.00000000	      0.00000000	      0.00000000	    378.24510992	      0.00000000	     -0.00000000	      0.00000000	      0.00000000	      0.00000000	      0.00000000	      0.00000000	      0.00000000	      0.00000000	    -34.91242838	     16.39315720	     76.46121979	    599.99394522	   -565.86084255	      0.00000000	      0.00000000	      0.00000000	     89.90868514
      1.40000000	      0.00000000	     -0.00000000	      0.00000000	      0.00000000	      0.00000000	      0.00000000	      0.00000000	      0.00000000	      0.00000000	     -1.29617822	     12.75744438	   -699.55590820	   -285.77624825	  -1169.54501583	      0.00000000	     -0.00000000	      0.00000000	    603.73628488	      0.00000000	     -0.00000000	      0.00000000	      0.00000000	      0.00000000	      0.00000000	      0.00000000	      0.00000000	      0.00000000	    -34.83456661	     16.18272895	     74.89098358	    608.97660159	   -563.45628232	      0.00000000	      0.00000000	     -0.00000000	   -222.23456579
      1.41000000	      0.00000000	     -0.00000000	      0.00000000	      0.00000000	      0.00000000	      0.00000000	      0.00000000	      0.00000000	      0.00000000	     -0.91559637	     12.50871086	   -696.16418457	   -286.65837860	  -1168.63196590	      0.00000000	     -0.00000000	      0.00000000	    816.95856282	      0.00000000	     -0.00000000	      0.00000000	      0.00000000	      0.00000000	      0.00000000	      0.00000000	      0.00000000	      0.00000000	    -35.18824249	     15.70169947	     75.54634094	    603.59592210	   -562.48484403	      0.00000000	      0.00000000	      0.00000000	     34.66137121
      1.42000000	      0.00000000	     -0.00000000	      0.00000000	      0.00000000	      0.00000000	      0.00000000	      0.00000000	      0.00000000	      0.00000000	     -0.39930692	     12.86980534	   -698.63623047	   -287.88982861	  -1168.57058779	      0.00000000	      0.00000000	      0.00000000	    856.13774735	      0.00000000	     -0.00000000	      0.00000000	      0.00000000	      0.00000000	      0.00000000	      0.00000000	      0.00000000	      0.00000000	    -34.69826365	     16.35110586	     75.66892242	    604.82520823	   -563.30983657	      0.00000000	      0.00000000	      0.00000000	   -237.05918818
